<?xml version="1.0" encoding="utf-8"?>
<svg viewBox="0 0 500 500" xmlns="http://www.w3.org/2000/svg">
  <defs>
    <clipPath clipPathUnits="userSpaceOnUse" id="clipPath16">
      <path d="M 0,400 H 400 V 0 H 0 Z" id="path14"/>
    </clipPath>
  </defs>
  <g id="g8" transform="matrix(1.3333330154418945, 0, 0, -1.3333330154418945, -25.877637863159176, 514.231201171875)">
    <g id="g10">
      <g id="g12" clip-path="url(#clipPath16)">
        <g id="g18" transform="translate(147.1143,107.9775)">
          <path d="M 0,0 C -0.148,0.565 0.319,1.429 -0.653,1.751 -1.516,2.037 -1.955,1.377 -2.422,0.871 -2.736,0.531 -3.033,0.134 -3.201,-0.292 -3.579,-1.256 -3.222,-1.936 -2.246,-2.294 -0.616,-2.893 0.025,-2.259 0,0 m -7.578,-1.7 c 0.448,0.243 1.489,-0.177 1.428,0.637 -0.072,0.955 0.395,1.615 0.651,2.399 0.343,1.048 0.018,1.336 -1.114,1.147 -0.87,-0.145 -1.491,-0.562 -2.16,-1.14 -0.684,-0.591 -0.971,-1.04 -0.636,-1.903 0.329,-0.845 0.945,-1.118 1.831,-1.14 m -6.954,1.508 c 1.523,0.028 2.912,0.976 2.891,1.975 -0.024,1.132 -1.319,2.31 -2.489,2.264 -0.948,-0.038 -2.159,-1.516 -2.134,-2.664 0.024,-1.105 0.635,-1.622 1.732,-1.575 m -4.848,4.583 c 0.024,1.142 -0.953,2.036 -2.266,2.073 -1.244,0.034 -2.787,-1.171 -2.799,-2.186 -0.013,-1.118 1.051,-2.255 2.122,-2.264 1.402,-0.013 2.919,1.212 2.943,2.377 m 13.348,-20.688 c -0.06,0.218 -0.069,0.588 -0.245,0.842 -1.159,1.664 -1.196,3.55 -1.194,5.465 0.001,0.898 -0.11,1.8 -0.214,2.694 -0.086,0.748 -0.392,1.445 -1.201,1.576 -0.742,0.12 -1.066,-0.558 -1.323,-1.099 -0.498,-1.048 -0.649,-2.167 -0.467,-3.328 0.411,-2.621 1.697,-4.806 3.353,-6.809 0.234,-0.283 0.464,-0.746 0.881,-0.584 0.46,0.179 0.341,0.72 0.41,1.243 M 94.581,-29.554 c -1.086,-0.088 -2.409,-0.02 -2.668,-1.364 -0.5,-2.592 -0.786,-5.226 -1.141,-7.846 -0.059,-0.442 0.059,-0.905 0.567,-1.008 0.438,-0.09 0.713,0.292 0.819,0.634 0.847,2.71 2.41,5.059 3.715,7.54 0.72,1.368 0.22,2.086 -1.292,2.044 m -109.41,20.759 c 0,0.427 -0.025,0.856 0.005,1.279 0.049,0.686 -0.132,1.295 -0.826,1.471 -0.781,0.198 -1.214,-0.364 -1.516,-1.001 -0.376,-0.793 -0.488,-1.649 -0.41,-2.504 0.338,-3.681 2.081,-6.654 4.762,-9.102 0.503,-0.46 1.151,-1.407 1.9,-0.688 0.824,0.79 -0.281,1.324 -0.688,1.84 -2.019,2.564 -3.491,5.312 -3.227,8.705 m 26.408,-26.682 c 0,1.042 0.036,2.087 -0.01,3.127 -0.047,1.092 -0.158,2.196 -0.754,3.148 -0.392,0.626 -0.968,1.061 -1.78,0.906 -0.677,-0.129 -0.904,-0.674 -0.957,-1.261 -0.356,-3.917 -0.159,-7.769 1.461,-11.432 0.206,-0.468 0.474,-1.042 1.092,-0.96 0.634,0.083 0.698,0.707 0.758,1.22 0.205,1.745 0.243,3.498 0.19,5.252 m 117.896,30.816 c 0,0.759 0.02,1.518 -0.006,2.276 -0.029,0.791 -0.344,1.121 -1.188,0.763 -1.307,-0.557 -1.794,-1.63 -1.947,-2.916 -0.365,-3.065 -0.816,-6.113 -1.367,-9.15 -0.27,-1.492 -0.436,-3.004 -0.609,-4.512 -0.07,-0.617 -0.011,-1.372 0.633,-1.57 0.684,-0.209 1.063,0.418 1.314,1.012 0.275,0.653 0.614,1.285 0.825,1.958 1.239,3.954 2.141,7.974 2.345,12.139 M -26.84,-7.61 c 0.004,-1.973 0.45,-3.922 1.412,-5.69 1.214,-2.231 2.854,-4.128 5.071,-5.453 0.423,-0.253 0.919,-0.409 1.304,0.013 0.425,0.464 -0.096,0.763 -0.32,1.079 -1.942,2.741 -2.947,5.803 -3.177,9.139 -0.065,0.945 -0.139,1.89 -0.242,2.832 -0.096,0.876 -0.516,1.544 -1.425,1.737 -0.917,0.193 -1.546,-0.318 -2.018,-1.023 -0.52,-0.774 -0.695,-1.651 -0.605,-2.634 M 83.229,-54.551 c -0.041,-0.83 0.135,-1.62 0.448,-2.365 0.377,-0.9 1.097,-1.181 1.765,-0.425 1.612,1.82 3.22,3.844 3.388,6.27 0.174,2.51 -0.4,5.075 -0.675,7.613 -0.052,0.485 -0.28,0.947 -0.861,0.973 -0.491,0.02 -0.766,-0.347 -0.94,-0.751 -1.562,-3.63 -2.646,-7.392 -3.125,-11.315 m 40.473,48.042 c 0,0.334 -0.003,0.761 0.001,1.188 0.005,0.557 -0.106,1.091 -0.708,1.254 -0.591,0.161 -1.01,-0.225 -1.282,-0.69 -0.383,-0.651 -0.763,-1.317 -1.029,-2.021 -1.538,-4.044 -2.477,-8.259 -3.459,-12.457 -0.291,-1.244 -0.457,-2.524 -0.568,-3.797 -0.1,-1.172 0.455,-1.478 1.469,-0.914 0.917,0.509 1.42,1.354 1.895,2.245 2.516,4.722 3.171,9.888 3.681,15.192 m -42.764,-45.01 c -0.081,0.717 -0.181,1.657 -0.293,2.595 -0.065,0.539 -0.255,1.105 -0.764,1.277 -0.611,0.208 -0.87,-0.417 -1.191,-0.808 -3.085,-3.759 -3.902,-8.154 -3.599,-12.86 0.089,-1.396 -0.09,-2.84 0.93,-4.047 0.409,-0.485 0.513,-1.341 1.361,-1.228 0.714,0.096 0.843,0.821 1.072,1.377 1.781,4.313 2.088,8.896 2.484,13.694 m -16.064,-12.58 c 0.048,-0.922 0.12,-1.814 0.444,-2.667 0.503,-1.323 2.722,-2.626 4.032,-2.369 1.518,0.298 2.168,1.304 2.224,3.301 0.048,1.69 -0.143,3.378 -0.165,5.047 -0.027,2.011 -0.638,3.807 -1.143,5.659 -0.22,0.808 -0.861,1.383 -1.727,1.522 -0.891,0.141 -1.208,-0.595 -1.573,-1.193 -1.753,-2.87 -1.344,-6.218 -2.092,-9.3 m -41.362,10.636 c -0.509,-4.157 1.264,-7.889 2.189,-11.776 0.142,-0.596 0.605,-0.981 1.241,-1.002 0.695,-0.024 0.745,0.58 0.947,1.054 1.668,3.901 1.691,7.915 0.829,11.983 -0.459,2.168 -0.693,4.408 -1.827,6.38 -0.278,0.484 -0.586,1.08 -1.254,0.988 -0.567,-0.078 -0.726,-0.679 -0.988,-1.123 -1.196,-2.027 -0.904,-4.315 -1.137,-6.504 m 18.313,-11.041 c -0.292,-1.5 1.183,-3.271 3.261,-4.648 1.8,-1.193 3.581,-0.566 3.803,1.331 0.436,3.749 1.012,7.508 -0.037,11.262 -0.341,1.219 -1.2,1.917 -2.292,2.32 -0.949,0.349 -1.596,-0.29 -2.204,-0.932 -2.175,-2.293 -2.222,-5.209 -2.531,-9.333 m -2.49,8.178 c -0.009,10e-4 -0.019,10e-4 -0.028,0.002 0,0.712 0.024,1.425 -0.005,2.135 -0.094,2.338 -1.792,3.247 -3.791,2.042 -0.871,-0.525 -1.503,-1.235 -2.016,-2.134 -1.726,-3.02 -1.314,-6.327 -1.414,-9.571 -0.038,-1.19 0.455,-2.206 1.078,-3.177 1.049,-1.636 3.129,-1.726 4.019,-0.019 0.778,1.491 1.67,2.991 1.772,4.763 0.114,1.987 0.256,3.972 0.385,5.959 m -21.327,17.555 c 0.672,-0.479 0.768,-1.216 1.006,-1.862 0.442,-1.201 0.839,-2.419 1.261,-3.628 0.15,-0.43 0.384,-0.78 0.919,-0.703 0.504,0.073 0.552,0.495 0.547,0.865 -0.055,4.447 -0.435,8.819 -2.831,12.755 -0.47,0.772 -1.099,0.846 -1.825,0.672 -0.756,-0.181 -1.04,-0.764 -1.035,-1.502 0.006,-0.87 0.245,-1.702 0.605,-2.471 0.663,-1.42 0.369,-2.625 -0.54,-3.832 -3.247,-4.312 -3.085,-9.316 -2.735,-14.313 0.093,-1.336 1.548,-2.339 2.844,-2.296 1.153,0.039 1.99,0.918 2.137,2.416 0.289,2.941 0.184,5.878 -0.304,8.794 -0.282,1.686 -0.536,3.363 -0.049,5.105 m 44.636,-23.948 c 0.269,3.02 -1.004,5.768 -3.372,8.073 -0.556,0.541 -1.115,1.07 -1.985,0.574 -1.264,-0.72 -2.219,-1.661 -2.884,-3.017 -1.493,-3.045 -1.507,-6.152 -0.894,-9.39 0.262,-1.387 0.946,-2.253 2.217,-2.67 1.89,-0.622 3.601,-0.381 5.128,1.048 1.491,1.397 1.857,3.128 1.79,5.382 M -29.305,8.724 c -0.35,0.342 -0.729,0.379 -1.101,0.457 -9.214,1.928 -17.417,11.548 -16.99,21.053 0.18,3.986 0.764,7.925 1.106,11.891 0.755,8.747 -0.69,16.984 -5.238,24.584 -0.173,0.288 -0.312,0.711 -0.677,0.547 -0.365,-0.165 -0.111,-0.534 -0.024,-0.852 0.792,-2.86 1.581,-5.722 2.317,-8.598 1.202,-4.694 2.28,-9.409 2.122,-14.307 -0.133,-4.159 -1.154,-8.158 -2.16,-12.161 -0.65,-2.586 -0.803,-5.194 0.163,-7.708 2.782,-7.235 7.628,-12.459 15.058,-15.066 1.806,-0.633 3.603,-0.578 5.424,0.16 m 25.292,232.374 c -0.385,0.421 -0.616,0.126 -0.851,0.035 -4.063,-1.566 -7.995,-3.43 -11.943,-5.258 -2.082,-0.965 -4.208,-1.925 -6.153,-3.07 -2.252,-1.326 -4.475,-2.781 -6.693,-4.191 -4.308,-2.738 -8.47,-5.647 -12.539,-8.728 -4.911,-3.719 -9.539,-7.744 -13.995,-11.977 -4.471,-4.248 -8.768,-8.674 -12.627,-13.492 -2.987,-3.728 -5.974,-7.47 -8.709,-11.381 -2.431,-3.477 -4.764,-7.039 -6.797,-10.783 -1.776,-3.269 -3.594,-6.514 -5.152,-9.898 -2.388,-5.189 -4.557,-10.46 -6.498,-15.838 -2.171,-6.019 -3.936,-12.145 -5.362,-18.37 -0.821,-3.587 -1.475,-7.218 -2.085,-10.849 -0.586,-3.491 -0.999,-7.01 -1.279,-10.543 -0.288,-3.622 -0.859,-7.25 -0.654,-10.87 0.162,-2.857 0.01,-5.707 0.107,-8.56 0.121,-3.601 0.423,-7.189 0.745,-10.761 0.602,-6.677 1.687,-13.31 3.182,-19.846 1.284,-5.614 2.83,-11.166 4.69,-16.633 1.429,-4.201 2.923,-8.389 4.72,-12.423 2.05,-4.6 4.099,-9.219 6.613,-13.62 1.776,-3.111 3.528,-6.238 5.458,-9.251 3.137,-4.897 6.382,-9.731 10.098,-14.219 4.289,-5.178 8.514,-10.413 13.583,-14.892 1.619,-1.432 3,-3.132 4.514,-4.686 3.474,-3.565 7.509,-6.466 11.437,-9.479 3.378,-2.591 6.929,-4.94 10.527,-7.232 5.404,-3.441 11.011,-6.502 16.736,-9.332 5.517,-2.726 11.273,-4.931 17.059,-7.044 5.797,-2.116 11.741,-3.69 17.738,-5.101 0.791,-0.187 1.119,-0.151 0.722,0.764 -0.505,1.162 -0.898,2.372 -1.414,3.528 -0.711,1.593 -1.333,3.33 -3.628,3.117 -2.083,-0.193 -4.021,0.324 -5.935,1.132 -2.313,0.975 -3.161,2.294 -3.148,4.781 0.011,2.377 0.568,4.803 -0.497,7.119 -0.592,1.287 -1.152,2.592 -1.645,3.919 -1.864,5.014 -3.093,10.222 -4.647,15.33 -0.273,0.897 -0.727,1.275 -1.679,1.394 -4.027,0.5 -8.087,0.516 -12.12,1.032 -5.136,0.656 -10.01,1.759 -14.31,4.854 -3.087,2.223 -5.316,5.087 -6.96,8.44 -1.982,4.041 -1.982,8.355 -1.258,12.644 0.25,1.478 -0.106,2.052 -1.346,2.562 -4.945,2.034 -9.271,5.147 -12.656,9.145 -5.512,6.513 -7.846,14.189 -6.286,22.779 0.921,5.071 0.603,10.091 -0.56,15.065 -1.27,5.435 -2.688,10.835 -3.969,16.268 -0.814,3.452 -1.47,6.941 -2.246,10.402 -1.004,4.475 -1.832,8.981 -2.399,13.527 -0.479,3.845 -0.758,7.714 -1.232,11.559 -0.609,4.932 -1.126,9.882 -1.257,14.837 -0.182,6.915 -0.091,13.833 0.402,20.754 0.326,4.578 0.538,9.153 1.19,13.707 1.181,8.254 3.253,16.278 6.016,24.128 2.157,6.132 4.882,12.013 8.005,17.716 3.121,5.7 6.577,11.197 10.571,16.307 4.987,6.378 10.39,12.401 16.652,17.596 4.476,3.714 8.917,7.462 14.037,10.307 1.957,1.087 3.806,2.371 5.727,3.579 M 51.901,78.721 c 2.063,-0.488 3.754,-0.841 5.419,-1.29 4.335,-1.169 8.662,-2.366 13.068,-3.249 0.334,-0.068 0.712,-0.081 0.729,-0.508 0.017,-0.382 -0.385,-0.366 -0.627,-0.447 -1.614,-0.538 -3.246,-1.026 -4.854,-1.58 -5.224,-1.798 -10.452,-3.582 -15.654,-5.438 -5.256,-1.876 -10.488,-3.82 -15.716,-5.774 -0.485,-0.182 -1.301,-0.336 -1.297,-0.882 0.004,-0.525 0.775,-0.778 1.269,-1.017 3.364,-1.626 6.759,-3.185 10.111,-4.835 0.677,-0.333 1.913,-0.353 1.877,-1.162 C 46.196,51.896 45,52.212 44.342,52.07 38.382,50.791 32.427,49.508 26.611,47.65 23.868,46.774 21.053,46.088 18.384,45.029 15.629,43.937 12.813,43.003 10.104,41.771 8.172,40.893 6.152,40.19 4.246,39.232 3.957,39.088 3.577,38.983 3.563,38.588 3.546,38.104 4.006,38.021 4.324,37.85 5.822,37.035 7.376,36.308 8.853,35.476 14.663,32.198 20.84,29.84 27.179,27.87 c 8.042,-2.5 16.322,-3.759 24.708,-4.028 4.856,-0.156 9.728,-0.28 14.618,0.245 3.027,0.324 6.043,0.818 8.999,1.355 5.478,0.995 10.857,2.552 16.16,4.352 8.918,3.027 17.205,7.268 24.876,12.679 6.671,4.707 12.849,10.003 18.279,16.148 3.513,3.975 6.823,8.096 9.719,12.534 2.929,4.49 5.532,9.155 7.81,14.024 1.579,3.375 3.036,6.794 4.285,10.287 1.432,4.004 2.423,8.149 3.453,12.284 1.575,6.323 2.183,12.749 2.676,19.209 0.284,3.713 0.133,7.415 0.031,11.128 -0.157,5.795 -1.022,11.495 -2.174,17.136 -1.477,7.239 -3.603,14.323 -6.555,21.109 -3.401,7.821 -7.578,15.235 -12.633,22.111 -3.559,4.841 -7.495,9.388 -11.825,13.562 -2.585,2.493 -5.287,4.871 -8.034,7.185 -2.241,1.889 -4.595,3.647 -7.063,5.244 -1.054,0.682 -1.767,0.604 -2.377,-0.604 -1.033,-2.045 -2.148,-4.051 -3.283,-6.041 -2.63,-4.606 -4.97,-9.363 -7.403,-14.072 -0.155,-0.302 -0.384,-0.609 -0.203,-0.924 0.221,-0.38 0.609,-0.091 0.905,-0.07 0.705,0.05 1.406,0.166 2.104,0.281 3.543,0.581 7.089,1.145 10.625,1.765 3.445,0.603 6.879,1.268 10.319,1.899 0.224,0.041 0.497,0.099 0.633,-0.155 0.141,-0.263 -0.08,-0.45 -0.241,-0.609 -1.039,-1.029 -2.052,-2.088 -3.14,-3.063 -4.052,-3.633 -8.189,-7.17 -12.312,-10.723 -5.734,-4.941 -11.659,-9.639 -17.517,-14.426 -1.234,-1.009 -2.621,-1.912 -3.579,-3.329 12.379,-1.933 24.751,-2.689 37.141,-3.843 -15.025,-10.948 -31.203,-20.039 -46.453,-30.6 0.592,-0.2 1.1,-0.193 1.609,-0.201 12.243,-0.178 24.491,0.341 36.73,-0.272 0.589,-0.03 1.564,0.279 1.681,-0.246 0.161,-0.722 -0.841,-0.999 -1.389,-1.361 -3.343,-2.212 -6.713,-4.383 -10.094,-6.538 -2.952,-1.88 -5.918,-3.738 -8.897,-5.574 -3.816,-2.353 -7.654,-4.672 -11.477,-7.014 -2.502,-1.532 -4.978,-3.11 -7.497,-4.615 -3.367,-2.009 -6.763,-3.966 -10.146,-5.946 -0.327,-0.191 -0.764,-0.377 -0.623,-0.827 0.153,-0.49 0.612,-0.263 0.978,-0.25 1.602,0.057 3.209,0.183 4.808,0.12 5.817,-0.231 11.63,-0.528 17.445,-0.799 2.27,-0.106 4.544,-0.161 6.811,-0.326 2.04,-0.149 4.072,-0.417 6.152,-0.637 -0.095,-0.179 -0.118,-0.296 -0.182,-0.329 C 100.307,102.417 95,99.68 89.632,97.071 84.393,94.525 79.016,92.26 73.779,89.722 68.24,87.038 62.633,84.502 57.108,81.789 55.419,80.959 53.796,80.042 51.901,78.721 m -5.526,72.602 c -0.046,0.154 -0.092,0.308 -0.138,0.463 -12.34,-0.533 -24.605,-2.226 -37.007,-2.602 18.563,12.727 38.281,23.365 58.233,33.622 -0.326,0.237 -0.556,0.295 -0.787,0.33 -9.1,1.391 -17.986,3.856 -27.06,5.37 -0.47,0.079 -1.223,-0.003 -1.285,0.598 -0.049,0.464 0.647,0.612 1.061,0.817 3.276,1.618 6.524,3.298 9.844,4.82 10.183,4.668 20.576,8.843 30.914,13.145 1.018,0.424 2.074,0.83 3.157,1.754 -4.179,1.022 -8.208,1.686 -12.41,2.931 0.905,0.424 1.51,0.672 2.083,0.982 6.599,3.569 13.352,6.829 20.16,9.976 3.833,1.773 7.686,3.502 11.521,5.27 0.367,0.169 0.952,0.244 0.975,0.716 0.028,0.578 -0.646,0.589 -1.009,0.853 -0.076,0.055 -0.169,0.087 -0.254,0.13 -16.699,8.445 -34.301,12.83 -53.11,11.927 -5.603,-0.268 -11.158,-0.852 -16.651,-1.961 -10.629,-2.145 -20.71,-5.722 -30.188,-11.091 -11.137,-6.308 -21.114,-14.02 -29.468,-23.709 -9.674,-11.22 -17.014,-23.805 -21.605,-37.959 -3.315,-10.223 -5.076,-20.695 -5.416,-31.412 -0.26,-8.14 0.618,-16.186 2.166,-24.179 2.268,-11.712 6.49,-22.701 12.242,-33.097 3.404,-6.155 7.545,-11.828 12.121,-17.19 6.135,-7.188 13.046,-13.496 20.787,-18.91 0.814,-0.569 1.219,-0.419 1.607,0.45 1.045,2.34 2.068,4.696 3.235,6.975 5.661,11.057 11.551,21.992 17.847,32.704 0.298,0.508 0.984,1.04 0.685,1.607 -0.34,0.646 -1.124,0.172 -1.712,0.18 C 16.391,84.84 15.869,84.799 15.346,84.794 9.22,84.744 3.118,84.317 -2.971,83.655 -4.863,83.449 -6.766,83.33 -9.059,83.138 c 11.355,11.314 23.717,20.85 35.512,31.119 -10.814,-0.621 -21.51,-0.861 -32.212,-0.734 -0.038,0.116 -0.076,0.231 -0.114,0.347 17.416,12.484 34.831,24.968 52.248,37.453 m 104.416,-87.133 -0.027,0.026 c 0.206,-0.662 -0.174,-1.196 -0.396,-1.762 -1.233,-3.143 -2.772,-6.145 -4.389,-9.1 -2.218,-4.057 -3.824,-8.216 -3.862,-12.963 -0.036,-4.547 -0.007,-9.117 -0.781,-13.635 -0.718,-4.183 -2.223,-7.856 -6.091,-10.131 -0.242,-0.142 -0.45,-0.35 -0.651,-0.549 -0.419,-0.416 -0.856,-0.94 -0.51,-1.498 0.365,-0.59 0.942,-0.126 1.397,0.046 5.625,2.129 9.016,7.339 8.737,13.496 -0.148,3.272 -0.507,6.537 -0.544,9.809 -0.033,2.866 0.759,5.58 2.403,8.007 -0.944,-3.824 -0.507,-7.64 -0.123,-11.457 0.219,-2.172 0.434,-4.345 0.628,-6.52 0.323,-3.617 -0.658,-6.86 -2.881,-9.72 -1.05,-1.348 -2.17,-2.638 -3.421,-3.811 -1.181,-1.109 -2.45,-2.102 -3.782,-3.018 -0.229,-0.158 -0.558,-0.321 -0.484,-0.639 0.101,-0.443 0.523,-0.31 0.832,-0.3 0.329,0.009 0.663,0.054 0.984,0.128 4.72,1.074 8.031,3.843 9.573,8.431 0.983,2.925 1.419,5.984 1.206,9.117 -0.29,4.271 -0.246,8.546 0.262,12.801 1.022,8.556 3.92,16.59 6.848,24.621 2.6,7.136 5.944,13.956 8.786,20.986 8.189,20.26 10.619,41.28 7.687,62.882 -2.658,19.587 -9.747,37.508 -21.206,53.63 -10.805,15.205 -24.146,27.694 -40.689,36.455 -22.203,11.759 -45.782,16.358 -70.803,12.826 -27.592,-3.895 -50.617,-16.547 -69.834,-36.446 -7.77,-8.046 -14.015,-17.208 -19.188,-27.111 -4.126,-7.899 -7.245,-16.175 -9.511,-24.796 -2.746,-10.449 -3.622,-21.102 -3.979,-31.849 -0.295,-8.868 0.515,-17.637 1.827,-26.381 1.245,-8.303 3.445,-16.34 6.801,-24.042 2.523,-5.786 5.096,-11.551 7.69,-17.306 2.892,-6.415 4.7,-13.043 3.971,-20.152 -0.334,-3.256 -0.826,-6.495 -1.284,-9.737 -0.219,-1.555 -0.453,-3.106 -0.244,-4.675 0.843,-6.324 3.874,-11.474 8.715,-15.499 1.669,-1.387 3.647,-2.578 6.253,-2.505 -0.322,0.39 -0.499,0.659 -0.727,0.873 -3.384,3.173 -6.086,6.891 -8.672,10.715 -3.591,5.308 -4.859,10.883 -2.672,17.143 0.994,2.848 1.948,5.762 2.304,8.796 0.898,7.642 -0.669,14.634 -5.001,21.114 -6.737,10.082 -10.794,21.294 -13.127,33.146 -0.424,2.153 -0.938,4.327 -0.592,6.949 0.867,-1.916 1.234,-3.608 1.619,-5.284 1.845,-8.034 4.373,-15.817 8.332,-23.089 3.386,-6.219 7.246,-12.147 11.01,-18.135 2.903,-4.619 3.684,-9.677 3.084,-15.038 -0.379,-3.389 -2.038,-6.298 -3.286,-9.362 -0.833,-2.046 -1.549,-4.102 -1.06,-6.354 1.119,-5.149 4.444,-8.336 9.176,-10.257 0.349,-0.141 0.713,-0.275 1.198,-0.068 -0.29,0.342 -0.561,0.656 -0.827,0.976 -1.702,2.041 -3.459,4.039 -4.947,6.249 -1.992,2.959 -2.224,6.076 -0.81,9.34 0.565,1.306 1.125,2.617 1.619,3.951 1.066,2.882 2.279,5.742 2.297,8.883 0.018,3.236 -0.893,6.275 -2.158,9.223 -0.449,1.045 -1.069,2.085 -1.02,3.234 0.052,1.198 -0.455,2.071 -1.081,2.987 -7.578,11.103 -13.446,23.038 -17.016,36.016 -4.304,15.649 -5.03,31.514 -2.51,47.557 2.544,16.194 8.324,31.109 17.324,44.79 8.69,13.212 19.892,23.849 33.135,32.424 13.94,9.028 29.119,14.575 45.602,16.623 9.435,1.173 18.838,1.05 28.243,-0.265 13.348,-1.864 25.963,-5.969 37.798,-12.409 8.006,-4.357 15.242,-9.786 21.902,-16.009 12.985,-12.131 22.764,-26.408 29.041,-43.056 8.11,-21.51 9.802,-43.551 4.792,-65.949 C 157.536,80.1 143.266,57.746 120.537,40.942 114.376,36.388 107.79,32.567 100.787,29.47 89.087,24.294 76.866,21.122 64.09,20.321 58.991,20.001 55.804,17.532 54.111,12.839 53.576,11.353 53.302,9.816 53.009,8.279 52.945,7.945 52.852,7.574 52.448,7.565 c -0.442,-0.009 -0.465,0.404 -0.515,0.72 -0.136,0.844 -0.217,1.696 -0.379,2.534 -0.744,3.847 -1.91,7.414 -6.099,8.907 -2.151,0.766 -4.361,1.33 -6.605,1.707 -16.765,2.814 -32.039,9.235 -45.944,18.96 -8.386,5.864 -15.603,12.984 -22.134,20.827 -0.314,0.376 -0.489,0.954 -1.239,0.964 0.05,-1.188 0.552,-2.216 0.971,-3.255 0.623,-1.546 1.146,-3.108 1.372,-4.773 0.644,-4.751 -0.568,-9.246 -1.873,-13.72 -0.683,-2.344 -0.439,-4.562 0.868,-6.556 1.795,-2.739 3.753,-5.381 6.192,-7.596 4.27,-3.879 8.924,-6.559 15.1,-5.98 5.234,0.49 10.526,0.264 15.782,-0.215 5.221,-0.477 10.334,-1.443 15.224,-3.399 6.373,-2.549 12.219,-6.094 18.056,-9.644 2.541,-1.545 3.443,-4.54 2.24,-7.291 -0.88,-2.012 -1.3,-4.047 -0.827,-6.232 0.15,-0.69 0.295,-1.463 -0.604,-1.825 -0.94,-0.378 -1.998,-0.746 -2.86,-0.108 -0.73,0.541 0.118,1.268 0.209,1.923 0.471,3.39 -0.5,6.585 -1.438,9.768 C 37.723,4.035 37.119,3.837 36.553,3.507 33.69,1.838 30.593,1.107 27.283,1.191 21.351,1.342 15.417,1.456 9.484,1.6 8.103,1.634 6.719,1.728 5.456,1.007 4.222,0.303 3.691,-0.804 3.719,-2.192 3.746,-3.498 4.885,-3.504 5.721,-3.856 5.885,-3.926 6.098,-3.931 6.128,-4.229 5.641,-4.886 4.885,-4.899 4.232,-4.687 2.014,-3.961 0.345,-4.995 -1.222,-6.301 c -2.806,-2.336 -2.641,-5.363 -1.848,-8.495 0.578,-2.282 2.103,-3.896 3.882,-5.302 1.563,-1.235 3.179,-2.322 5.358,-1.905 1.034,0.197 1.799,-0.376 2.455,-1.121 1.567,-1.78 3.592,-2.924 5.639,-4.039 2.619,-1.427 5.442,-1.053 8.226,-0.922 1.193,0.056 1.79,-0.334 1.8,-1.579 0.052,-6.457 2.329,-12.369 4.707,-18.207 1.494,-3.67 1.78,-3.609 5.125,-1.531 3.579,2.222 5.874,2.034 8.881,-0.815 0.659,-0.623 1.242,-0.651 2.047,-0.345 1.946,0.743 2.926,0.409 4.175,-1.267 0.397,-0.532 0.805,-1.058 1.182,-1.605 1.106,-1.605 1.265,-1.653 2.829,-0.407 1.388,1.107 2.826,2.084 4.616,2.416 0.981,0.182 1.935,0.156 2.618,-0.653 0.75,-0.89 1.807,-1.382 2.61,-2.188 0.522,-0.522 0.965,-0.445 1.452,0.06 0.822,0.852 1.641,1.713 2.528,2.494 1.026,0.906 2.114,1.689 3.53,0.604 0.505,-0.388 1.096,-0.291 1.597,0.08 2.944,2.183 5.665,4.591 7.629,7.74 0.414,0.663 0.601,1.778 1.479,1.697 0.866,-0.081 0.703,-1.19 0.912,-1.889 0.119,-0.4 0.205,-0.856 0.748,-0.928 0.524,-0.07 0.92,0.141 1.233,0.55 0.594,0.776 0.833,1.693 1.038,2.624 0.102,0.468 0.169,1.022 0.716,1.129 1.3,0.252 1.34,1.15 1.212,2.165 -0.165,1.318 -0.368,2.632 -0.503,3.954 -0.136,1.343 -0.836,1.885 -2.176,1.825 -1.896,-0.086 -3.797,-0.111 -5.696,-0.094 -0.804,0.008 -1.667,-0.068 -2.637,0.616 5.169,1.874 9.579,4.782 14.299,7.083 1.046,0.509 2.16,0.532 3.33,0.209 4.176,-1.152 8.417,-1.363 12.69,-0.599 3.72,0.665 6.45,2.606 7.739,6.256 1.478,4.185 2.208,8.539 2.701,12.931 0.151,1.343 -0.358,2.422 -1.669,3.009 -1.082,0.484 -2.165,0.967 -3.239,1.467 -0.457,0.213 -1.135,0.322 -1.077,0.963 0.055,0.604 0.721,0.671 1.203,0.843 0.222,0.081 0.455,0.135 0.687,0.179 3.077,0.58 6.157,1.143 9.23,1.74 1.112,0.216 2.237,0.431 3.301,0.805 0.663,0.232 1.671,0.606 1.382,1.495 -0.252,0.773 -1.221,0.779 -2.004,0.609 -2.049,-0.444 -4.124,-0.647 -6.213,-0.78 C 115.329,4.368 112.151,4.186 108.987,3.882 99.065,2.933 89.165,1.723 79.184,1.562 75.58,1.503 71.97,1.345 68.37,1.634 c -1.598,0.129 -3.178,0.571 -3.888,2.203 -0.695,1.6 0.129,2.948 1.111,4.169 3.166,3.939 7.153,6.765 11.842,8.601 5.223,2.046 10.688,2.963 16.255,3.325 5.687,0.368 11.289,-0.042 16.707,-1.983 3.082,-1.103 6.224,-2.056 9.249,-3.296 5.909,-2.421 12.861,1.547 15.328,5.681 1.975,3.312 2.625,6.995 2.95,10.749 0.51,5.873 0.888,11.782 3.739,17.12 2.184,4.085 4.515,8.092 6.801,12.121 0.742,1.308 1.55,2.578 2.327,3.866 m -27.947,171.864 -0.029,0.045 0.039,-0.034 c 7.526,-5.571 14.627,-11.599 20.967,-18.536 7.277,-7.962 13.409,-16.699 18.434,-26.213 5.683,-10.761 9.724,-22.107 12.054,-34.084 1.199,-6.163 2.006,-12.357 2.311,-18.606 0.396,-8.118 0.035,-16.223 -1.122,-24.279 -1.56,-10.857 -4.484,-21.345 -8.837,-31.404 -3.224,-7.449 -6.377,-14.908 -8.931,-22.627 -2.914,-8.807 -4.513,-17.794 -4.792,-27.066 -0.104,-3.503 0.173,-7.01 -0.16,-10.501 -0.606,-6.353 -2.982,-11.699 -8.662,-15.207 -2.762,-1.706 -5.86,-2.406 -8.892,-3.326 -0.675,-0.205 -1.234,-0.329 -1.268,-1.227 -0.14,-3.708 -0.884,-7.338 -1.521,-10.978 -0.899,-5.132 -1.755,-10.216 -4.572,-14.839 -3.078,-5.053 -7.451,-7.645 -13.128,-8.43 -4.364,-0.602 -8.715,-0.058 -13.064,0.205 -1.201,0.074 -1.929,-0.081 -2.418,-1.317 -0.906,-2.292 -1.935,-4.54 -3.012,-6.758 -1.72,-3.538 -3.593,-7.005 -3.294,-11.143 0.356,-4.928 -1.988,-8.603 -5.926,-11.093 -2.464,-1.559 -3.906,-3.618 -5,-6.123 -0.165,-0.379 -0.618,-0.779 -0.369,-1.158 0.28,-0.422 0.786,-0.061 1.184,0.005 8.346,1.406 16.484,3.619 24.478,6.369 8.46,2.911 16.548,6.655 24.305,11.109 8.824,5.067 17.191,10.775 24.944,17.4 5.914,5.053 11.417,10.484 16.485,16.376 5.757,6.696 10.899,13.837 15.628,21.286 5.72,9.015 10.328,18.586 13.962,28.603 4.049,11.167 7.045,22.615 8.647,34.417 0.934,6.874 1.422,13.767 1.596,20.692 0.128,5.131 -0.143,10.244 -0.546,15.358 -0.494,6.246 -1.31,12.451 -2.547,18.588 -1.481,7.349 -3.477,14.565 -5.927,21.663 -3.745,10.848 -8.518,21.211 -14.361,31.081 -6.409,10.827 -14.024,20.735 -22.766,29.786 -3.992,4.133 -8.214,8.008 -12.607,11.71 -8.67,7.307 -18.067,13.536 -28.022,18.935 -1.017,0.553 -2.018,1.27 -3.261,1.321 m -88.29,-75.29 c -0.11,-0.066 -0.22,-0.132 -0.33,-0.199 -3.01,-2.019 -6.359,-3.513 -9.172,-5.935 11.581,0.81 23.133,1.509 34.777,1.451 -0.358,-0.479 -0.766,-0.836 -1.208,-1.147 -8.193,-5.765 -16.422,-11.479 -24.579,-17.295 -8.851,-6.31 -18.029,-12.16 -26.577,-18.896 -0.42,-0.331 -0.951,-0.585 -1.193,-1.276 10.965,-0.071 21.731,1.09 32.573,1.939 C 27.187,108.947 14.463,99.829 3.467,88.672 11.375,88.755 19.162,89.453 27.139,90.097 26.912,89.635 26.841,89.461 26.745,89.302 23.083,83.25 19.398,77.213 15.759,71.146 10.653,62.634 5.655,54.061 2.113,44.738 1.889,44.147 1.261,43.394 1.717,42.936 c 0.483,-0.485 1.227,0.17 1.811,0.411 8.164,3.353 16.36,6.615 24.831,9.139 1.591,0.474 3.257,0.787 4.95,1.793 -1.656,0.867 -3.093,1.62 -4.53,2.372 0.004,0.099 -0.042,0.15 -0.14,0.154 -0.619,0.301 -1.237,0.604 -1.856,0.907 -0.101,0.057 -0.201,0.113 -0.303,0.17 -0.088,0.04 -0.178,0.079 -0.267,0.119 -0.102,0.053 -0.204,0.106 -0.306,0.16 l -0.847,0.381 c -0.064,0.152 -0.17,0.213 -0.332,0.154 -0.199,0.097 -0.396,0.195 -0.595,0.291 -0.019,0.156 -0.038,0.312 -0.057,0.468 0.55,0.271 1.086,0.576 1.653,0.807 9.617,3.908 19.239,7.801 28.854,11.714 0.757,0.308 1.58,0.539 2.269,1.243 -5.708,1.658 -11.409,2.73 -17.08,4.09 16.874,8.266 33.916,16.009 50.403,24.881 -11.965,1.199 -23.894,0.379 -35.819,1.165 17.33,10.384 35.14,19.863 51.354,31.947 -13.873,0.483 -27.647,-0.299 -41.491,-0.035 16.482,10.36 33.045,20.494 49.3,31.844 -11.701,1.681 -23.146,2.396 -34.381,4.803 0.101,0.582 0.41,0.736 0.669,0.928 4.913,3.657 9.683,7.496 14.45,11.339 5.726,4.617 11.728,8.889 17.218,13.8 0.923,0.827 1.781,1.728 2.669,2.595 -7.371,-0.549 -14.28,-2.593 -21.698,-4.251 5.715,9.641 10.762,19.138 15.474,28.866 -8.836,-3.052 -17.242,-6.786 -25.735,-11.21 4.874,-1.103 9.449,-1.788 13.901,-3.29 -7.542,-3.316 -15.094,-6.514 -22.688,-9.608 -7.634,-3.11 -14.995,-6.816 -22.536,-10.233 5.072,-1.394 10.182,-2.376 15.276,-3.442 5.126,-1.073 10.322,-1.7 15.619,-2.387 -0.438,-0.727 -1.048,-0.801 -1.535,-1.036 -8.336,-4.02 -16.719,-7.948 -25.011,-12.057 -4.886,-2.422 -9.633,-5.124 -14.442,-7.7 l -0.286,-0.191 c -0.26,-0.146 -0.521,-0.292 -0.781,-0.438 -0.114,-0.063 -0.227,-0.127 -0.341,-0.19 -0.33,-0.187 -0.659,-0.373 -0.988,-0.559 -0.21,0.036 -0.373,-0.022 -0.456,-0.234 -0.206,-0.118 -0.411,-0.235 -0.617,-0.353 -0.231,0.027 -0.415,-0.037 -0.508,-0.271 l -0.573,-0.331 c -0.289,0.061 -0.496,-0.039 -0.615,-0.311 -0.35,-0.196 -0.7,-0.391 -1.05,-0.586 M 56.242,-75.471 c -27.869,-0.344 -53.887,6.723 -78.384,19.742 -5.702,3.029 -11.218,6.4 -16.475,10.166 -17.973,12.877 -33.02,28.524 -44.911,47.209 -8.523,13.389 -15.01,27.678 -19.505,42.883 -2.629,8.892 -4.633,17.925 -5.802,27.125 -1.497,11.774 -1.549,23.571 -0.525,35.395 1.086,12.555 3.755,24.774 7.692,36.706 3.98,12.067 9.188,23.592 15.879,34.437 5.299,8.588 11.214,16.702 17.975,24.186 13.833,15.314 29.886,27.722 48.437,36.848 10.761,5.294 21.852,9.728 33.465,12.756 10.044,2.619 20.296,3.887 30.641,4.67 17.251,1.306 34.113,-0.942 50.774,-5.162 10.017,-2.537 19.568,-6.354 28.87,-10.844 27.062,-13.064 48.468,-32.547 65.128,-57.382 6.98,-10.408 12.549,-21.582 16.992,-33.29 8.433,-22.223 12.189,-45.244 10.856,-68.977 C 215.937,55.872 209.628,32.001 197.556,9.838 187.589,-8.462 175.012,-24.74 158.888,-38.108 143.729,-50.676 127.08,-60.707 108.385,-67.055 94.259,-71.852 79.78,-75.087 64.78,-75.46 c -2.843,-0.071 -5.691,-0.011 -8.538,-0.011" style="fill:#3f3632;fill-opacity:1;fill-rule:nonzero;stroke:none" id="path20"/>
        </g>
        <g id="g22" transform="translate(355.9385,60.9697)">
          <path d="M 0,0 C 0.554,-0.732 0.7,-1.176 0.198,-1.708 -0.363,-1.258 -0.179,-0.773 0,0" style="fill:#53508b;fill-opacity:1;fill-rule:nonzero;stroke:none" id="path24"/>
        </g>
        <g id="g26" transform="translate(193.4888,259.3003)">
          <path d="m 0,0 c -17.416,-12.484 -34.832,-24.968 -52.247,-37.453 0.038,-0.115 0.076,-0.231 0.113,-0.346 10.703,-0.128 21.399,0.112 32.212,0.733 -11.795,-10.268 -24.157,-19.805 -35.511,-31.119 2.293,0.192 4.195,0.311 6.088,0.518 6.089,0.662 12.191,1.088 18.317,1.138 0.522,0.005 1.045,0.046 1.567,0.039 0.588,-0.008 1.371,0.466 1.711,-0.179 0.299,-0.568 -0.386,-1.1 -0.685,-1.608 -6.295,-10.712 -12.185,-21.646 -17.846,-32.704 -1.167,-2.279 -2.19,-4.635 -3.235,-6.975 -0.388,-0.869 -0.793,-1.019 -1.607,-0.45 -7.741,5.414 -14.652,11.722 -20.788,18.91 -4.575,5.363 -8.716,11.036 -12.121,17.19 -5.751,10.396 -9.973,21.386 -12.241,33.097 -1.548,7.994 -2.426,16.039 -2.167,24.18 0.341,10.717 2.101,21.188 5.417,31.411 4.591,14.155 11.931,26.74 21.604,37.959 8.354,9.689 18.331,17.401 29.468,23.709 9.479,5.369 19.56,8.947 30.188,11.091 5.493,1.109 11.048,1.693 16.652,1.962 18.809,0.902 36.41,-3.483 53.11,-11.928 0.084,-0.043 0.177,-0.075 0.253,-0.13 0.364,-0.263 1.038,-0.275 1.009,-0.853 -0.022,-0.471 -0.607,-0.546 -0.974,-0.715 -3.835,-1.769 -7.689,-3.498 -11.522,-5.27 -6.807,-3.148 -13.56,-6.408 -20.159,-9.977 -0.573,-0.31 -1.179,-0.558 -2.083,-0.981 4.201,-1.246 8.23,-1.91 12.409,-2.932 -1.083,-0.924 -2.139,-1.33 -3.156,-1.754 C 23.437,52.261 13.044,48.086 2.862,43.418 c -3.32,-1.522 -6.569,-3.202 -9.844,-4.82 -0.415,-0.205 -1.11,-0.352 -1.062,-0.817 0.063,-0.601 0.815,-0.519 1.285,-0.597 9.075,-1.515 17.961,-3.98 27.06,-5.371 0.232,-0.035 0.461,-0.092 0.787,-0.33 C 1.137,21.227 -18.581,10.588 -37.144,-2.139 -24.742,-1.763 -12.477,-0.07 -0.137,0.463 -0.091,0.309 -0.046,0.154 0,0" style="fill-opacity: 1; fill-rule: nonzero; stroke: none; fill: rgb(255, 0, 0);" id="path28"/>
        </g>
        <g id="g30" transform="translate(199.0156,186.6982)">
          <path d="m 0,0 c 1.895,1.321 3.518,2.238 5.207,3.068 5.524,2.713 11.132,5.249 16.671,7.933 5.236,2.538 10.613,4.803 15.852,7.349 5.369,2.609 10.675,5.347 16.005,8.034 0.065,0.033 0.087,0.151 0.183,0.329 -2.08,0.221 -4.112,0.489 -6.152,0.638 -2.267,0.165 -4.541,0.219 -6.811,0.325 -5.815,0.271 -11.629,0.569 -17.445,0.799 -1.6,0.064 -3.206,-0.062 -4.809,-0.12 -0.365,-0.013 -0.824,-0.24 -0.977,0.25 -0.141,0.451 0.296,0.637 0.623,0.828 3.382,1.979 6.779,3.936 10.145,5.945 2.52,1.505 4.995,3.083 7.497,4.616 3.824,2.341 7.661,4.66 11.478,7.013 2.978,1.837 5.945,3.694 8.896,5.575 3.381,2.154 6.751,4.326 10.095,6.537 0.548,0.362 1.55,0.639 1.389,1.361 -0.118,0.525 -1.092,0.216 -1.681,0.246 -12.239,0.613 -24.487,0.094 -36.73,0.273 -0.509,0.007 -1.017,10e-4 -1.61,0.2 15.25,10.562 31.429,19.653 46.453,30.6 -12.389,1.154 -24.761,1.91 -37.14,3.844 0.958,1.416 2.344,2.319 3.579,3.328 5.857,4.787 11.783,9.485 17.516,14.426 4.123,3.554 8.26,7.091 12.313,10.724 1.088,0.974 2.1,2.034 3.14,3.062 0.161,0.16 0.381,0.346 0.241,0.609 -0.136,0.254 -0.409,0.196 -0.633,0.155 -3.441,-0.631 -6.874,-1.296 -10.319,-1.899 -3.537,-0.619 -7.082,-1.183 -10.625,-1.765 -0.699,-0.115 -1.4,-0.23 -2.104,-0.281 -0.297,-0.021 -0.684,-0.31 -0.905,0.07 -0.182,0.315 0.048,0.622 0.203,0.924 2.433,4.709 4.772,9.466 7.402,14.072 1.136,1.99 2.25,3.996 3.283,6.041 0.611,1.208 1.324,1.287 2.377,0.604 2.468,-1.597 4.823,-3.355 7.064,-5.243 2.747,-2.314 5.449,-4.693 8.034,-7.185 4.329,-4.175 8.266,-8.722 11.824,-13.562 5.056,-6.877 9.233,-14.29 12.634,-22.112 2.951,-6.785 5.077,-13.869 6.555,-21.109 1.152,-5.641 2.016,-11.341 2.174,-17.135 0.101,-3.714 0.253,-7.416 -0.032,-11.129 -0.493,-6.46 -1.1,-12.885 -2.675,-19.209 -1.031,-4.135 -2.021,-8.28 -3.454,-12.284 -1.249,-3.493 -2.706,-6.912 -4.285,-10.287 -2.277,-4.869 -4.881,-9.534 -7.809,-14.023 -2.897,-4.439 -6.206,-8.56 -9.719,-12.535 -5.431,-6.145 -11.608,-11.441 -18.279,-16.148 -7.671,-5.411 -15.958,-9.651 -24.876,-12.679 -5.303,-1.8 -10.682,-3.357 -16.16,-4.351 -2.957,-0.537 -5.972,-1.032 -8.999,-1.356 -4.89,-0.524 -9.762,-0.401 -14.619,-0.245 -8.385,0.27 -16.666,1.528 -24.708,4.028 -6.338,1.97 -12.516,4.329 -18.326,7.606 -1.476,0.832 -3.031,1.559 -4.529,2.374 -0.317,0.172 -0.777,0.254 -0.761,0.738 0.014,0.396 0.395,0.5 0.684,0.645 1.905,0.958 3.926,1.66 5.858,2.539 2.709,1.231 5.525,2.165 8.279,3.258 2.669,1.058 5.485,1.745 8.228,2.621 5.815,1.857 11.771,3.14 17.731,4.42 0.657,0.141 1.854,-0.174 1.883,0.468 0.037,0.809 -1.199,0.829 -1.876,1.162 -3.352,1.65 -6.748,3.209 -10.112,4.835 -0.494,0.24 -1.265,0.493 -1.268,1.017 -0.004,0.546 0.811,0.7 1.297,0.882 5.227,1.954 10.459,3.898 15.716,5.774 5.201,1.857 10.43,3.64 15.653,5.439 1.609,0.553 3.241,1.042 4.855,1.579 0.242,0.081 0.643,0.065 0.627,0.447 -0.018,0.427 -0.396,0.441 -0.73,0.508 C 14.081,-3.655 9.754,-2.459 5.419,-1.29 3.754,-0.841 2.063,-0.487 0,0" style="fill-opacity: 1; fill-rule: nonzero; stroke: none; fill: rgb(0, 0, 255);" id="path32"/>
        </g>
        <g id="g34" transform="translate(196.9287,81.5615)">
          <path d="m 0,0 c -0.3,4.89 -0.97,9.53 -2.565,13.992 -0.397,1.112 -0.969,2.167 -1.915,2.927 -0.829,0.664 -1.615,0.375 -1.495,-0.619 0.173,-1.433 -0.299,-2.71 -0.562,-4.043 C -7.335,8.21 -7.861,4.106 -9.015,0.132 c -0.163,-0.563 -0.163,-1.139 0.11,-1.669 1.346,-2.613 2.678,-5.241 4.43,-7.611 0.909,-1.23 1.761,-1.127 2.475,0.23 1.495,2.844 1.761,5.971 2,8.918 m 6.906,-9.079 c 0.59,0.205 1.044,0.608 1.492,1.019 0.165,0.082 0.328,0.164 0.491,0.245 0.279,-0.014 0.523,0.044 0.657,0.325 0.097,0.005 0.176,0.044 0.239,0.116 0.162,-0.036 0.269,0.02 0.307,0.187 2.437,1.207 2.892,2.152 1.717,3.999 C 8.842,1.47 8.675,6.738 8.401,11.986 8.375,12.49 8.592,13.004 8.67,13.517 8.785,14.269 9.582,15.298 8.859,15.699 8.033,16.16 7.312,15.107 6.643,14.535 6.572,14.475 6.513,14.396 6.46,14.318 2.079,7.75 1.215,0.679 3.437,-6.833 c 0.001,-0.721 0.326,-1.292 0.824,-1.782 0.011,-0.1 0.057,-0.18 0.137,-0.239 0.703,-1.25 1.549,-1.087 2.465,-0.254 z m 94.071,99.685 c -0.778,-1.288 -1.585,-2.558 -2.328,-3.866 -2.286,-4.029 -4.617,-8.036 -6.8,-12.121 -2.852,-5.338 -3.23,-11.247 -3.74,-17.12 -0.325,-3.754 -0.974,-7.436 -2.95,-10.749 -2.467,-4.134 -9.419,-8.102 -15.327,-5.681 -3.025,1.24 -6.167,2.193 -9.249,3.296 -5.419,1.941 -11.02,2.351 -16.707,1.983 -5.567,-0.362 -11.032,-1.279 -16.256,-3.325 -4.688,-1.836 -8.676,-4.662 -11.842,-8.601 -0.981,-1.221 -1.805,-2.568 -1.11,-4.169 0.71,-1.632 2.29,-2.074 3.888,-2.203 3.599,-0.289 7.21,-0.131 10.813,-0.072 9.982,0.161 19.882,1.371 29.804,2.32 3.164,0.304 6.342,0.486 9.515,0.689 2.088,0.133 4.164,0.336 6.212,0.78 0.784,0.17 1.752,0.164 2.004,-0.609 0.289,-0.889 -0.718,-1.262 -1.382,-1.495 -1.063,-0.374 -2.188,-0.589 -3.3,-0.805 -3.074,-0.597 -6.154,-1.16 -9.231,-1.74 -0.231,-0.044 -0.465,-0.098 -0.686,-0.179 -0.483,-0.172 -1.149,-0.239 -1.203,-0.843 -0.058,-0.641 0.62,-0.75 1.077,-0.963 1.074,-0.5 2.157,-0.983 3.239,-1.467 C 66.729,23.079 67.237,22 67.087,20.657 66.594,16.265 65.863,11.911 64.386,7.726 63.097,4.076 60.366,2.135 56.646,1.47 52.373,0.706 48.133,0.917 43.956,2.069 c -1.17,0.323 -2.283,0.3 -3.329,-0.209 -4.721,-2.301 -9.131,-5.209 -14.3,-7.083 0.971,-0.684 1.833,-0.608 2.638,-0.616 1.898,-0.017 3.8,0.008 5.695,0.094 1.341,0.06 2.04,-0.482 2.177,-1.825 0.135,-1.322 0.338,-2.636 0.503,-3.954 0.128,-1.015 0.088,-1.913 -1.212,-2.165 -0.548,-0.107 -0.614,-0.661 -0.717,-1.129 -0.204,-0.931 -0.443,-1.848 -1.038,-2.624 -0.312,-0.409 -0.708,-0.62 -1.232,-0.55 -0.543,0.072 -0.629,0.528 -0.748,0.928 -0.209,0.699 -0.046,1.808 -0.913,1.889 -0.877,0.081 -1.064,-1.034 -1.478,-1.697 -1.965,-3.149 -4.686,-5.557 -7.63,-7.74 -0.501,-0.371 -1.092,-0.468 -1.597,-0.08 -1.416,1.085 -2.504,0.302 -3.53,-0.604 -0.887,-0.781 -1.705,-1.642 -2.527,-2.494 -0.488,-0.505 -0.931,-0.582 -1.452,-0.06 -0.803,0.806 -1.861,1.298 -2.611,2.188 -0.682,0.809 -1.636,0.835 -2.618,0.653 -1.79,-0.332 -3.227,-1.309 -4.615,-2.416 -1.564,-1.246 -1.724,-1.198 -2.83,0.407 -0.376,0.547 -0.785,1.073 -1.182,1.605 -1.248,1.676 -2.228,2.01 -4.174,1.267 -0.806,-0.306 -1.389,-0.278 -2.047,0.345 -3.007,2.849 -5.302,3.037 -8.881,0.815 -3.345,-2.078 -3.631,-2.139 -5.126,1.531 -2.378,5.838 -4.654,11.75 -4.706,18.207 -0.01,1.245 -0.607,1.635 -1.8,1.579 -2.784,-0.131 -5.608,-0.505 -8.227,0.922 -2.047,1.115 -4.071,2.259 -5.638,4.039 -0.656,0.745 -1.421,1.318 -2.455,1.121 -2.179,-0.417 -3.795,0.67 -5.359,1.905 -1.779,1.406 -3.304,3.02 -3.881,5.302 -0.793,3.132 -0.958,6.159 1.847,8.495 1.568,1.306 3.236,2.34 5.454,1.614 0.653,-0.212 1.409,-0.199 1.897,0.458 -0.031,0.298 -0.244,0.303 -0.408,0.373 -0.836,0.352 -1.974,0.358 -2.001,1.664 -0.029,1.388 0.502,2.495 1.737,3.199 1.262,0.721 2.646,0.627 4.028,0.593 5.933,-0.144 11.866,-0.258 17.798,-0.409 3.311,-0.084 6.408,0.647 9.271,2.316 0.565,0.33 1.17,0.528 1.392,-0.226 0.938,-3.183 1.909,-6.378 1.437,-9.768 -0.09,-0.655 -0.939,-1.382 -0.208,-1.923 0.861,-0.638 1.919,-0.27 2.86,0.108 0.898,0.362 0.754,1.135 0.604,1.825 -0.473,2.185 -0.053,4.22 0.826,6.232 1.204,2.751 0.301,5.746 -2.239,7.291 -5.838,3.55 -11.683,7.095 -18.057,9.644 -4.89,1.957 -10.002,2.922 -15.223,3.399 -5.256,0.479 -10.548,0.705 -15.783,0.215 -6.175,-0.579 -10.829,2.101 -15.099,5.98 -2.439,2.215 -4.398,4.857 -6.192,7.596 -1.307,1.994 -1.551,4.212 -0.868,6.556 1.304,4.474 2.517,8.969 1.873,13.72 -0.226,1.665 -0.749,3.227 -1.373,4.773 -0.418,1.039 -0.92,2.067 -0.971,3.255 0.75,-0.01 0.926,-0.588 1.24,-0.964 6.531,-7.843 13.748,-14.963 22.133,-20.827 13.905,-9.725 29.18,-16.146 45.944,-18.96 2.245,-0.377 4.455,-0.941 6.606,-1.707 4.189,-1.493 5.354,-5.06 6.098,-8.907 0.162,-0.838 0.244,-1.69 0.379,-2.534 0.051,-0.316 0.074,-0.729 0.516,-0.72 0.404,0.009 0.497,0.38 0.56,0.714 0.294,1.537 0.567,3.074 1.103,4.56 1.692,4.693 4.88,7.162 9.978,7.482 12.777,0.801 24.997,3.973 36.698,9.149 7.003,3.097 13.589,6.918 19.75,11.472 22.728,16.804 36.999,39.158 43.143,66.621 5.011,22.398 3.319,44.439 -4.792,65.949 -6.276,16.648 -16.055,30.926 -29.041,43.056 -6.66,6.223 -13.895,11.652 -21.901,16.009 -11.835,6.44 -24.45,10.545 -37.798,12.409 -9.405,1.315 -18.808,1.438 -28.243,0.265 -16.484,-2.048 -31.662,-7.595 -45.603,-16.623 -13.242,-8.575 -24.444,-19.212 -33.134,-32.424 -9,-13.681 -14.78,-28.596 -17.324,-44.79 -2.52,-16.043 -1.795,-31.908 2.51,-47.557 3.57,-12.978 9.437,-24.913 17.016,-36.016 0.625,-0.916 1.132,-1.789 1.081,-2.987 -0.05,-1.149 0.571,-2.189 1.019,-3.234 1.265,-2.948 2.177,-5.987 2.158,-9.223 -0.017,-3.141 -1.23,-6.001 -2.296,-8.883 -0.494,-1.334 -1.054,-2.645 -1.62,-3.951 -1.413,-3.264 -1.181,-6.381 0.811,-9.34 1.487,-2.21 3.244,-4.208 4.946,-6.249 0.266,-0.32 0.538,-0.634 0.827,-0.976 -0.485,-0.207 -0.848,-0.073 -1.197,0.068 -4.732,1.921 -8.058,5.108 -9.177,10.257 -0.489,2.252 0.228,4.308 1.061,6.354 1.248,3.064 2.906,5.973 3.286,9.362 0.599,5.361 -0.181,10.419 -3.084,15.038 -3.764,5.988 -7.624,11.916 -11.01,18.135 -3.959,7.272 -6.487,15.055 -8.333,23.089 -0.384,1.676 -0.751,3.368 -1.619,5.284 -0.346,-2.622 0.168,-4.796 0.592,-6.949 2.334,-11.852 6.39,-23.064 13.128,-33.146 4.331,-6.48 5.899,-13.472 5.001,-21.114 -0.357,-3.034 -1.31,-5.948 -2.305,-8.796 -2.186,-6.26 -0.919,-11.835 2.673,-17.143 2.586,-3.824 5.287,-7.542 8.671,-10.715 0.228,-0.214 0.405,-0.483 0.728,-0.873 -2.606,-0.073 -4.584,1.118 -6.254,2.506 -4.841,4.024 -7.872,9.174 -8.714,15.498 -0.21,1.569 0.025,3.12 0.244,4.675 0.457,3.242 0.949,6.481 1.283,9.737 0.73,7.109 -1.079,13.737 -3.97,20.152 -2.594,5.755 -5.168,11.52 -7.69,17.306 -3.357,7.702 -5.557,15.739 -6.802,24.042 -1.311,8.744 -2.121,17.513 -1.827,26.381 0.357,10.747 1.233,21.4 3.979,31.849 2.267,8.621 5.385,16.897 9.512,24.796 5.173,9.903 11.417,19.065 19.187,27.111 19.217,19.899 42.243,32.551 69.835,36.446 25.02,3.532 48.599,-1.067 70.802,-12.826 16.543,-8.761 29.884,-21.25 40.69,-36.455 11.459,-16.122 18.548,-34.043 21.206,-53.629 2.932,-21.603 0.502,-42.623 -7.688,-62.883 -2.841,-7.03 -6.185,-13.85 -8.786,-20.986 -2.927,-8.031 -5.826,-16.065 -6.847,-24.621 -0.508,-4.255 -0.552,-8.53 -0.262,-12.801 0.213,-3.133 -0.224,-6.192 -1.206,-9.117 -1.542,-4.588 -4.854,-7.357 -9.573,-8.431 -0.322,-0.074 -0.656,-0.119 -0.985,-0.128 -0.308,-0.01 -0.73,-0.143 -0.832,0.301 -0.073,0.317 0.255,0.48 0.485,0.638 1.332,0.916 2.6,1.909 3.782,3.018 1.251,1.173 2.371,2.463 3.421,3.811 2.222,2.86 3.204,6.103 2.881,9.72 -0.195,2.175 -0.41,4.348 -0.628,6.521 -0.384,3.816 -0.822,7.632 0.123,11.456 -1.645,-2.427 -2.437,-5.141 -2.404,-8.007 0.037,-3.272 0.397,-6.537 0.544,-9.809 0.28,-6.157 -3.111,-11.367 -8.736,-13.496 -0.455,-0.172 -1.032,-0.636 -1.397,-0.046 -0.346,0.558 0.09,1.082 0.509,1.498 0.201,0.199 0.409,0.407 0.652,0.549 3.868,2.275 5.373,5.948 6.09,10.131 0.775,4.518 0.746,9.088 0.782,13.635 0.038,4.747 1.643,8.906 3.862,12.963 1.616,2.955 3.155,5.957 4.389,9.1 0.221,0.566 0.601,1.1 0.394,1.762 0.06,0.049 0.119,0.096 0.178,0.143 -0.033,0.025 -0.067,0.049 -0.101,0.074 -0.016,-0.081 -0.033,-0.161 -0.048,-0.243" style="fill-opacity: 1; fill-rule: nonzero; stroke: none; fill: rgb(255, 255, 255);" id="path36"/>
        </g>
        <g id="g38" transform="translate(269.958,344.0317)">
          <path d="m 0,0 c 1.243,-0.051 2.244,-0.769 3.262,-1.321 9.954,-5.399 19.351,-11.628 28.021,-18.935 4.393,-3.702 8.615,-7.577 12.608,-11.71 8.741,-9.051 16.356,-18.959 22.765,-29.786 5.843,-9.871 10.616,-20.233 14.362,-31.081 2.449,-7.098 4.445,-14.314 5.926,-21.664 1.238,-6.136 2.053,-12.341 2.547,-18.587 0.404,-5.114 0.674,-10.227 0.546,-15.358 -0.174,-6.926 -0.662,-13.818 -1.596,-20.692 -1.602,-11.802 -4.597,-23.25 -8.647,-34.417 -3.634,-10.017 -8.241,-19.588 -13.962,-28.603 -4.728,-7.449 -9.871,-14.591 -15.628,-21.286 -5.067,-5.893 -10.571,-11.323 -16.484,-16.376 -7.754,-6.625 -16.12,-12.333 -24.945,-17.4 -7.756,-4.454 -15.844,-8.199 -24.304,-11.109 -7.994,-2.75 -16.133,-4.964 -24.479,-6.369 -0.397,-0.066 -0.904,-0.428 -1.183,-0.005 -0.249,0.379 0.204,0.779 0.369,1.157 1.093,2.505 2.535,4.565 4.999,6.124 3.938,2.49 6.282,6.165 5.927,11.092 -0.299,4.139 1.574,7.606 3.293,11.144 1.078,2.218 2.106,4.466 3.012,6.758 0.489,1.236 1.217,1.39 2.418,1.317 4.349,-0.264 8.7,-0.808 13.065,-0.205 5.676,0.785 10.049,3.377 13.128,8.43 2.816,4.623 3.672,9.707 4.571,14.839 0.638,3.64 1.382,7.27 1.521,10.978 0.034,0.898 0.593,1.022 1.268,1.227 3.032,0.92 6.131,1.62 8.892,3.326 5.68,3.508 8.056,8.853 8.663,15.207 0.333,3.491 0.055,6.998 0.16,10.501 0.278,9.272 1.878,18.259 4.792,27.066 2.553,7.719 5.707,15.178 8.93,22.627 4.353,10.059 7.278,20.547 8.837,31.403 1.158,8.057 1.518,16.162 1.122,24.28 -0.304,6.249 -1.112,12.443 -2.311,18.606 -2.33,11.977 -6.37,23.323 -12.054,34.084 -5.024,9.513 -11.157,18.251 -18.433,26.213 -6.34,6.937 -13.442,12.964 -20.967,18.536 z" style="fill-opacity: 1; fill-rule: nonzero; stroke: none; fill: rgb(255, 0, 0);" id="path40"/>
        </g>
        <g id="g42" transform="translate(143.1011,349.0757)">
          <path d="m 0,0 c -1.921,-1.208 -3.77,-2.492 -5.727,-3.58 -5.12,-2.844 -9.561,-6.592 -14.037,-10.306 -6.262,-5.195 -11.665,-11.218 -16.652,-17.596 -3.994,-5.11 -7.45,-10.607 -10.571,-16.307 -3.122,-5.703 -5.847,-11.584 -8.005,-17.716 -2.762,-7.85 -4.835,-15.874 -6.016,-24.128 -0.652,-4.555 -0.864,-9.129 -1.19,-13.707 -0.493,-6.921 -0.584,-13.839 -0.402,-20.754 0.131,-4.955 0.648,-9.906 1.257,-14.838 0.474,-3.844 0.753,-7.714 1.233,-11.558 0.567,-4.547 1.395,-9.052 2.398,-13.527 0.776,-3.461 1.432,-6.95 2.246,-10.402 1.281,-5.433 2.699,-10.833 3.969,-16.268 1.164,-4.975 1.481,-9.994 0.56,-15.065 -1.56,-8.59 0.774,-16.266 6.287,-22.779 3.384,-3.998 7.711,-7.111 12.655,-9.145 1.24,-0.51 1.596,-1.084 1.347,-2.562 -0.725,-4.289 -0.725,-8.603 1.257,-12.644 1.644,-3.353 3.873,-6.217 6.96,-8.44 4.3,-3.095 9.174,-4.198 14.31,-4.854 4.034,-0.516 8.094,-0.532 12.121,-1.032 0.952,-0.119 1.405,-0.498 1.678,-1.394 1.554,-5.108 2.783,-10.316 4.647,-15.33 0.493,-1.327 1.053,-2.632 1.645,-3.919 1.066,-2.316 0.509,-4.742 0.497,-7.119 -0.012,-2.488 0.835,-3.806 3.148,-4.781 1.914,-0.808 3.852,-1.325 5.935,-1.132 2.295,0.213 2.917,-1.524 3.628,-3.117 0.516,-1.156 0.909,-2.366 1.414,-3.528 0.397,-0.915 0.069,-0.951 -0.722,-0.764 -5.996,1.411 -11.941,2.985 -17.738,5.101 -5.786,2.112 -11.542,4.317 -17.059,7.044 -5.725,2.83 -11.332,5.891 -16.736,9.332 -3.598,2.292 -7.149,4.641 -10.526,7.232 -3.929,3.013 -7.963,5.914 -11.438,9.479 -1.514,1.554 -2.894,3.254 -4.514,4.686 -5.069,4.479 -9.294,9.713 -13.583,14.892 -3.716,4.487 -6.961,9.321 -10.098,14.219 -1.929,3.013 -3.682,6.14 -5.458,9.251 -2.514,4.401 -4.563,9.019 -6.613,13.62 -1.796,4.034 -3.291,8.222 -4.72,12.423 -1.86,5.467 -3.406,11.019 -4.69,16.633 -1.495,6.536 -2.579,13.169 -3.182,19.846 -0.322,3.572 -0.623,7.159 -0.745,10.761 -0.097,2.853 0.056,5.703 -0.106,8.56 -0.206,3.62 0.365,7.248 0.653,10.87 0.281,3.532 0.693,7.051 1.279,10.543 0.61,3.631 1.264,7.261 2.086,10.849 1.425,6.225 3.19,12.351 5.361,18.37 1.941,5.378 4.11,10.649 6.499,15.838 1.557,3.384 3.375,6.629 5.151,9.898 2.034,3.744 4.366,7.305 6.797,10.782 2.735,3.912 5.722,7.654 8.709,11.382 3.859,4.818 8.156,9.243 12.628,13.492 4.455,4.233 9.083,8.258 13.994,11.977 4.07,3.081 8.231,5.99 12.539,8.728 2.219,1.41 4.441,2.865 6.693,4.191 1.946,1.145 4.071,2.105 6.154,3.069 3.947,1.829 7.879,3.693 11.942,5.259 C -0.616,0.126 -0.385,0.42 0,0" style="fill-opacity: 1; fill-rule: nonzero; stroke: none; fill: rgb(0, 0, 255);" id="path44"/>
        </g>
        <g id="g46" transform="translate(187.8828,272.2051)">
          <path d="m 0,0 c 4.81,2.576 9.556,5.279 14.442,7.7 8.292,4.11 16.675,8.037 25.011,12.058 0.487,0.235 1.098,0.308 1.535,1.036 -5.297,0.686 -10.493,1.313 -15.619,2.386 -5.094,1.066 -10.204,2.049 -15.275,3.443 7.541,3.417 14.901,7.122 22.536,10.233 7.594,3.093 15.145,6.291 22.687,9.608 -4.452,1.501 -9.027,2.186 -13.901,3.29 8.493,4.423 16.899,8.158 25.735,11.209 -4.712,-9.727 -9.758,-19.225 -15.473,-28.865 7.418,1.657 14.327,3.701 21.697,4.251 C 72.487,35.482 71.63,34.581 70.706,33.754 65.217,28.843 59.215,24.57 53.488,19.954 48.722,16.11 43.951,12.271 39.038,8.615 38.779,8.423 38.471,8.269 38.369,7.687 49.604,5.279 61.05,4.565 72.75,2.884 56.495,-8.466 39.933,-18.601 23.45,-28.96 c 13.845,-0.264 27.618,0.518 41.491,0.035 -16.213,-12.085 -34.024,-21.563 -51.353,-31.947 11.925,-0.786 23.853,0.033 35.818,-1.166 -16.487,-8.871 -33.529,-16.614 -50.403,-24.881 5.671,-1.359 11.372,-2.432 17.08,-4.09 -0.688,-0.704 -1.512,-0.934 -2.269,-1.243 -9.615,-3.912 -19.237,-7.806 -28.854,-11.714 -0.566,-0.23 -1.103,-0.536 -1.652,-0.805 -0.092,-0.068 -0.255,-0.127 -0.263,-0.204 -0.02,-0.197 0.141,-0.261 0.32,-0.265 0.198,-0.097 0.396,-0.195 0.593,-0.29 0.061,-0.16 0.174,-0.207 0.334,-0.156 0.282,-0.127 0.564,-0.253 0.846,-0.38 0.048,-0.158 0.153,-0.206 0.307,-0.161 0.089,-0.04 0.178,-0.079 0.266,-0.119 0.042,-0.161 0.141,-0.222 0.304,-0.17 0.618,-0.302 1.236,-0.605 1.855,-0.907 -0.009,-0.098 0.039,-0.149 0.14,-0.153 1.437,-0.752 2.875,-1.505 4.531,-2.372 -1.693,-1.006 -3.359,-1.32 -4.951,-1.793 -8.47,-2.525 -16.667,-5.786 -24.831,-9.14 -0.583,-0.24 -1.328,-0.895 -1.811,-0.411 -0.456,0.458 0.173,1.212 0.397,1.803 3.541,9.322 8.539,17.895 13.646,26.408 3.638,6.066 7.323,12.103 10.986,18.155 0.096,0.159 0.166,0.333 0.394,0.795 -7.978,-0.643 -15.765,-1.342 -23.673,-1.425 10.997,11.158 23.72,20.275 35.378,30.735 -10.842,-0.849 -21.608,-2.011 -32.572,-1.94 0.241,0.691 0.773,0.946 1.193,1.277 8.547,6.735 17.725,12.585 26.576,18.895 8.157,5.816 16.386,11.531 24.58,17.296 0.441,0.31 0.849,0.667 1.208,1.146 -11.645,0.059 -23.197,-0.64 -34.778,-1.45 2.813,2.422 6.162,3.915 9.172,5.935 0.11,0.066 0.221,0.132 0.331,0.199 0.35,0.195 0.699,0.39 1.049,0.585 0.282,-0.048 0.488,0.053 0.615,0.312 0.191,0.11 0.382,0.22 0.573,0.33 0.238,-0.038 0.412,0.045 0.509,0.272 0.205,0.117 0.41,0.235 0.616,0.352 0.219,-0.053 0.366,0.036 0.456,0.234 0.33,0.187 0.659,0.373 0.988,0.559 0.114,0.063 0.227,0.127 0.341,0.191 0.261,0.146 0.521,0.292 0.781,0.437 C -0.124,-0.228 -0.031,-0.16 0,0" style="fill-opacity: 1; fill-rule: nonzero; stroke: none; fill: rgb(0, 255, 0);" id="path48"/>
        </g>
        <g id="g50" transform="translate(117.8096,116.7012)">
          <path d="m 0,0 c -1.821,-0.737 -3.619,-0.793 -5.424,-0.159 -7.43,2.606 -12.276,7.83 -15.058,15.065 -0.967,2.514 -0.813,5.122 -0.164,7.708 1.006,4.003 2.027,8.002 2.161,12.161 0.158,4.899 -0.92,9.614 -2.122,14.307 -0.737,2.876 -1.525,5.738 -2.317,8.599 -0.088,0.317 -0.341,0.686 0.024,0.851 0.364,0.164 0.504,-0.259 0.676,-0.547 4.549,-7.599 5.994,-15.837 5.239,-24.584 -0.342,-3.965 -0.927,-7.905 -1.106,-11.89 C -18.519,12.005 -10.315,2.386 -1.101,0.457 -0.729,0.379 -0.35,0.343 0,0" style="fill:#ffffff;fill-opacity:1;fill-rule:nonzero;stroke:none" id="path52"/>
        </g>
        <g id="g54" transform="translate(209.7578,45.2588)">
          <path d="m 0,0 c 0.067,-2.254 -0.299,-3.985 -1.79,-5.382 -1.526,-1.43 -3.237,-1.67 -5.128,-1.049 -1.27,0.417 -1.954,1.284 -2.217,2.671 -0.612,3.238 -0.599,6.345 0.895,9.39 0.665,1.355 1.62,2.297 2.884,3.016 0.87,0.497 1.428,-0.033 1.985,-0.574 C -1.004,5.768 0.27,3.02 0,0" style="fill:#ffffff;fill-opacity:1;fill-rule:nonzero;stroke:none" id="path56"/>
        </g>
        <g id="g58" transform="translate(165.1226,69.2061)">
          <path d="m 0,0 c -0.488,-1.741 -0.233,-3.419 0.049,-5.104 0.488,-2.917 0.593,-5.853 0.304,-8.794 -0.147,-1.498 -0.984,-2.377 -2.137,-2.416 -1.297,-0.043 -2.751,0.96 -2.844,2.295 -0.35,4.998 -0.513,10.001 2.735,14.314 0.909,1.207 1.203,2.411 0.539,3.832 C -1.713,4.896 -1.953,5.728 -1.958,6.598 -1.963,7.336 -1.679,7.919 -0.923,8.1 -0.197,8.273 0.432,8.199 0.902,7.428 3.298,3.491 3.677,-0.881 3.733,-5.327 3.738,-5.697 3.689,-6.119 3.186,-6.192 2.651,-6.27 2.417,-5.92 2.267,-5.489 1.845,-4.28 1.448,-3.063 1.006,-1.861 0.768,-1.216 0.671,-0.479 0,0" style="fill:#ffffff;fill-opacity:1;fill-rule:nonzero;stroke:none" id="path60"/>
        </g>
        <g id="g62" transform="translate(186.4492,51.6514)">
          <path d="m 0,0 c -0.129,-1.986 -0.271,-3.972 -0.385,-5.959 -0.102,-1.771 -0.994,-3.271 -1.772,-4.763 -0.89,-1.707 -2.969,-1.617 -4.019,0.019 -0.623,0.972 -1.116,1.987 -1.078,3.178 0.1,3.243 -0.312,6.55 1.414,9.57 0.513,0.899 1.145,1.609 2.016,2.134 1.999,1.205 3.697,0.297 3.791,-2.042 0.029,-0.71 0.005,-1.423 0.005,-2.135 C -0.019,0.001 -0.009,0.001 0,0" style="fill:#ffffff;fill-opacity:1;fill-rule:nonzero;stroke:none" id="path64"/>
        </g>
        <g id="g66" transform="translate(188.939,43.4736)">
          <path d="M 0,0 C 0.309,4.124 0.356,7.04 2.531,9.333 3.139,9.975 3.786,10.614 4.735,10.265 5.828,9.862 6.686,9.164 7.027,7.945 8.076,4.191 7.5,0.432 7.064,-3.317 6.843,-5.214 5.061,-5.841 3.261,-4.648 1.184,-3.271 -0.292,-1.5 0,0" style="fill:#ffffff;fill-opacity:1;fill-rule:nonzero;stroke:none" id="path68"/>
        </g>
        <g id="g70" transform="translate(170.626,54.5146)">
          <path d="M 0,0 C 0.233,2.188 -0.059,4.477 1.137,6.504 1.399,6.948 1.559,7.549 2.125,7.627 2.793,7.719 3.102,7.123 3.379,6.639 4.513,4.667 4.747,2.427 5.207,0.259 6.068,-3.81 6.045,-7.823 4.377,-11.724 c -0.202,-0.474 -0.252,-1.078 -0.946,-1.054 -0.637,0.021 -1.1,0.406 -1.242,1.002 C 1.264,-7.889 -0.509,-4.157 0,0" style="fill:#ffffff;fill-opacity:1;fill-rule:nonzero;stroke:none" id="path72"/>
        </g>
        <g id="g74" transform="translate(211.9883,43.8789)">
          <path d="M 0,0 C 0.748,3.082 0.339,6.43 2.092,9.3 2.457,9.897 2.774,10.634 3.665,10.492 4.531,10.354 5.172,9.778 5.392,8.971 5.896,7.118 6.508,5.322 6.535,3.312 6.557,1.643 6.748,-0.045 6.7,-1.735 6.644,-3.732 5.994,-4.738 4.476,-5.036 3.166,-5.293 0.947,-3.99 0.444,-2.667 0.12,-1.814 0.048,-0.922 0,0" style="fill:#ffffff;fill-opacity:1;fill-rule:nonzero;stroke:none" id="path76"/>
        </g>
        <g id="g78" transform="translate(228.0518,56.459)">
          <path d="m 0,0 c -0.396,-4.799 -0.702,-9.382 -2.483,-13.694 -0.23,-0.556 -0.359,-1.282 -1.073,-1.377 -0.847,-0.114 -0.952,0.743 -1.361,1.227 -1.02,1.207 -0.841,2.652 -0.93,4.047 -0.302,4.706 0.515,9.102 3.6,12.86 0.32,0.391 0.579,1.016 1.19,0.808 0.509,-0.172 0.7,-0.737 0.764,-1.276 C -0.181,1.656 -0.08,0.717 0,0" style="fill:#ffffff;fill-opacity:1;fill-rule:nonzero;stroke:none" id="path80"/>
        </g>
        <g id="g82" transform="translate(270.8164,101.4688)">
          <path d="m 0,0 c -0.51,-5.305 -1.165,-10.471 -3.682,-15.192 -0.474,-0.891 -0.977,-1.737 -1.894,-2.245 -1.014,-0.564 -1.57,-0.258 -1.469,0.914 0.11,1.273 0.276,2.553 0.567,3.796 0.983,4.199 1.922,8.414 3.459,12.457 0.267,0.705 0.647,1.371 1.03,2.022 0.272,0.465 0.691,0.851 1.282,0.689 C -0.105,2.278 0.006,1.745 0.001,1.187 -0.003,0.761 0,0.334 0,0" style="fill:#ffffff;fill-opacity:1;fill-rule:nonzero;stroke:none" id="path84"/>
        </g>
        <g id="g86" transform="translate(230.3437,53.4268)">
          <path d="m 0,0 c 0.479,3.923 1.562,7.685 3.124,11.314 0.175,0.405 0.449,0.772 0.94,0.751 C 4.646,12.04 4.873,11.578 4.926,11.093 5.2,8.555 5.774,5.99 5.601,3.479 5.433,1.054 3.824,-0.97 2.213,-2.79 1.545,-3.546 0.824,-3.266 0.447,-2.365 0.135,-1.62 -0.042,-0.83 0,0" style="fill:#ffffff;fill-opacity:1;fill-rule:nonzero;stroke:none" id="path88"/>
        </g>
        <g id="g90" transform="translate(120.2744,100.3672)">
          <path d="M 0,0 C -0.09,0.983 0.085,1.86 0.604,2.635 1.077,3.339 1.706,3.851 2.623,3.657 3.532,3.465 3.952,2.796 4.047,1.92 4.15,0.979 4.225,0.033 4.29,-0.912 4.52,-4.248 5.525,-7.31 7.467,-10.051 7.69,-10.366 8.211,-10.666 7.787,-11.13 7.402,-11.552 6.906,-11.396 6.482,-11.143 4.266,-9.817 2.626,-7.921 1.412,-5.689 0.45,-3.922 0.004,-1.973 0,0" style="fill:#ffffff;fill-opacity:1;fill-rule:nonzero;stroke:none" id="path92"/>
        </g>
        <g id="g94" transform="translate(276.5889,103.3164)">
          <path d="m 0,0 c -0.203,-4.165 -1.105,-8.185 -2.345,-12.139 -0.211,-0.673 -0.55,-1.305 -0.825,-1.958 -0.251,-0.593 -0.63,-1.22 -1.313,-1.011 -0.645,0.197 -0.704,0.952 -0.633,1.569 0.173,1.508 0.339,3.02 0.608,4.512 0.551,3.037 1.002,6.086 1.367,9.15 0.154,1.286 0.64,2.359 1.948,2.916 0.843,0.358 1.159,0.028 1.187,-0.763 C 0.021,1.519 0,0.759 0,0" style="fill:#ffffff;fill-opacity:1;fill-rule:nonzero;stroke:none" id="path96"/>
        </g>
        <g id="g98" transform="translate(158.6934,72.501)">
          <path d="m 0,0 c 0.053,-1.755 0.015,-3.508 -0.19,-5.252 -0.06,-0.514 -0.124,-1.138 -0.758,-1.221 -0.618,-0.082 -0.886,0.493 -1.093,0.96 -1.619,3.663 -1.816,7.516 -1.46,11.433 0.053,0.587 0.28,1.132 0.957,1.261 C -1.732,7.336 -1.156,6.9 -0.764,6.274 -0.168,5.322 -0.057,4.219 -0.01,3.127 0.036,2.087 0,1.042 0,0" style="fill:#ffffff;fill-opacity:1;fill-rule:nonzero;stroke:none" id="path100"/>
        </g>
        <g id="g102" transform="translate(132.2852,99.1826)">
          <path d="m 0,0 c -0.264,-3.394 1.208,-6.141 3.228,-8.705 0.406,-0.516 1.511,-1.05 0.688,-1.84 -0.749,-0.719 -1.398,0.228 -1.901,0.688 -2.681,2.448 -4.424,5.42 -4.762,9.102 -0.078,0.855 0.035,1.711 0.41,2.504 0.302,0.637 0.735,1.199 1.516,1.001 C -0.126,2.574 0.054,1.965 0.005,1.279 -0.024,0.855 0,0.427 0,0" style="fill:#ffffff;fill-opacity:1;fill-rule:nonzero;stroke:none" id="path104"/>
        </g>
        <g id="g106" transform="translate(241.6943,78.4258)">
          <path d="m 0,0 c 1.513,0.04 2.013,-0.679 1.293,-2.046 -1.305,-2.481 -2.868,-4.83 -3.715,-7.54 -0.106,-0.343 -0.381,-0.725 -0.819,-0.635 -0.508,0.104 -0.626,0.567 -0.567,1.009 0.355,2.62 0.641,5.254 1.141,7.846 C -2.408,-0.022 -1.085,-0.09 0,0" style="fill:#ffffff;fill-opacity:1;fill-rule:nonzero;stroke:none" id="path108"/>
        </g>
        <g id="g110" transform="translate(141.082,91.6807)">
          <path d="m 0,0 c -0.069,-0.523 0.05,-1.064 -0.41,-1.243 -0.417,-0.162 -0.647,0.301 -0.881,0.584 -1.656,2.003 -2.941,4.188 -3.353,6.808 -0.182,1.162 -0.031,2.281 0.467,3.329 0.258,0.541 0.581,1.219 1.323,1.099 0.81,-0.131 1.115,-0.828 1.202,-1.576 C -1.549,8.106 -1.438,7.205 -1.439,6.307 -1.441,4.392 -1.403,2.506 -0.245,0.842 -0.068,0.588 -0.06,0.218 0,0" style="fill:#ffffff;fill-opacity:1;fill-rule:nonzero;stroke:none" id="path112"/>
        </g>
        <g id="g114" transform="translate(127.7344,112.3682)">
          <path d="m 0,0 c -0.024,-1.165 -1.542,-2.39 -2.943,-2.377 -1.071,0.01 -2.136,1.147 -2.122,2.265 0.012,1.014 1.555,2.219 2.799,2.185 C -0.953,2.036 0.024,1.143 0,0" style="fill:#ffffff;fill-opacity:1;fill-rule:nonzero;stroke:none" id="path116"/>
        </g>
        <g id="g118" transform="translate(132.5825,107.7852)">
          <path d="M 0,0 C -1.098,-0.047 -1.708,0.471 -1.732,1.575 -1.757,2.724 -0.546,4.201 0.402,4.239 1.572,4.285 2.867,3.107 2.891,1.976 2.912,0.977 1.523,0.028 0,0" style="fill:#ffffff;fill-opacity:1;fill-rule:nonzero;stroke:none" id="path120"/>
        </g>
        <g id="g122" transform="translate(139.5361,106.2773)">
          <path d="m 0,0 c -0.886,0.022 -1.502,0.295 -1.831,1.141 -0.335,0.862 -0.048,1.311 0.636,1.902 0.669,0.578 1.29,0.995 2.16,1.141 C 2.097,4.372 2.422,4.084 2.08,3.036 1.823,2.252 1.356,1.592 1.428,0.637 1.489,-0.177 0.448,0.243 0,0" style="fill:#ffffff;fill-opacity:1;fill-rule:nonzero;stroke:none" id="path124"/>
        </g>
        <g id="g126" transform="translate(147.1143,107.9775)">
          <path d="m 0,0 c 0.025,-2.259 -0.616,-2.893 -2.246,-2.294 -0.976,0.358 -1.333,1.038 -0.955,2.002 0.168,0.426 0.465,0.823 0.779,1.163 0.467,0.506 0.906,1.166 1.769,0.88 C 0.319,1.429 -0.148,0.565 0,0" style="fill:#ffffff;fill-opacity:1;fill-rule:nonzero;stroke:none" id="path128"/>
        </g>
        <g id="g130" transform="translate(183.333,269.6387)">
          <path d="M 0,0 C -0.127,-0.259 -0.333,-0.36 -0.615,-0.312 -0.496,-0.039 -0.289,0.061 0,0" style="fill:#53508b;fill-opacity:1;fill-rule:nonzero;stroke:none" id="path132"/>
        </g>
        <g id="g134" transform="translate(185.4873,270.8271)">
          <path d="M 0,0 C -0.091,-0.198 -0.238,-0.287 -0.457,-0.234 -0.373,-0.022 -0.21,0.036 0,0" style="fill:#53508b;fill-opacity:1;fill-rule:nonzero;stroke:none" id="path136"/>
        </g>
        <g id="g138" transform="translate(184.4146,270.2407)">
          <path d="M 0,0 C -0.097,-0.227 -0.271,-0.31 -0.509,-0.271 -0.416,-0.037 -0.231,0.026 0,0" style="fill:#53508b;fill-opacity:1;fill-rule:nonzero;stroke:none" id="path140"/>
        </g>
        <g id="g142" transform="translate(171.2476,166.9648)">
          <path d="m 0,0 c -0.179,0.004 -0.339,0.068 -0.319,0.266 0.007,0.076 0.171,0.135 0.262,0.203 C -0.038,0.312 -0.019,0.155 0,0" style="fill:#53508b;fill-opacity:1;fill-rule:nonzero;stroke:none" id="path144"/>
        </g>
        <g id="g146" transform="translate(269.9687,344.043)">
          <path d="m 0,0 -0.039,0.034 0.028,-0.045 z" style="fill:#e70235;fill-opacity:1;fill-rule:nonzero;stroke:none" id="path148"/>
        </g>
        <g id="g150" transform="translate(175.8931,164.6289)">
          <path d="M 0,0 C -0.102,0.004 -0.149,0.055 -0.141,0.153 -0.042,0.149 0.004,0.099 0,0" style="fill:#53508b;fill-opacity:1;fill-rule:nonzero;stroke:none" id="path152"/>
        </g>
        <g id="g154" transform="translate(173.8975,165.6895)">
          <path d="M 0,0 C -0.163,-0.053 -0.261,0.009 -0.303,0.17 -0.202,0.113 -0.101,0.057 0,0" style="fill:#53508b;fill-opacity:1;fill-rule:nonzero;stroke:none" id="path156"/>
        </g>
        <g id="g158" transform="translate(173.3276,165.9785)">
          <path d="M 0,0 C -0.154,-0.046 -0.259,0.003 -0.307,0.16 -0.205,0.106 -0.102,0.053 0,0" style="fill:#53508b;fill-opacity:1;fill-rule:nonzero;stroke:none" id="path160"/>
        </g>
        <g id="g162" transform="translate(172.1743,166.5195)">
          <path d="M 0,0 C -0.159,-0.052 -0.273,-0.005 -0.333,0.155 -0.17,0.213 -0.064,0.152 0,0" style="fill:#53508b;fill-opacity:1;fill-rule:nonzero;stroke:none" id="path164"/>
        </g>
        <g id="g166" transform="translate(181.6685,268.7417)">
          <path d="M 0,0 C -0.11,-0.066 -0.22,-0.133 -0.331,-0.199 -0.22,-0.132 -0.11,-0.066 0,0" style="fill:#53508b;fill-opacity:1;fill-rule:nonzero;stroke:none" id="path168"/>
        </g>
        <g id="g170" transform="translate(186.8159,271.5767)">
          <path d="M 0,0 C -0.114,-0.063 -0.228,-0.127 -0.341,-0.191 -0.227,-0.127 -0.114,-0.063 0,0" style="fill:#53508b;fill-opacity:1;fill-rule:nonzero;stroke:none" id="path172"/>
        </g>
        <g id="g174" transform="translate(187.8828,272.2051)">
          <path d="M 0,0 C -0.031,-0.16 -0.124,-0.228 -0.286,-0.191 -0.19,-0.127 -0.095,-0.063 0,0" style="fill:#53508b;fill-opacity:1;fill-rule:nonzero;stroke:none" id="path176"/>
        </g>
        <g id="g178" transform="translate(196.9287,81.5615)">
          <path d="m 0,0 c -0.239,-2.947 -0.505,-6.074 -2,-8.918 -0.714,-1.357 -1.566,-1.46 -2.475,-0.23 -1.752,2.37 -3.084,4.998 -4.43,7.611 -0.273,0.53 -0.273,1.106 -0.11,1.669 1.154,3.974 1.68,8.078 2.478,12.125 0.263,1.333 0.735,2.61 0.562,4.043 -0.12,0.994 0.666,1.283 1.495,0.619 0.946,-0.76 1.518,-1.815 1.915,-2.927 C -0.97,9.53 -0.3,4.89 0,0" style="fill:#3f3632;fill-opacity:1;fill-rule:nonzero;stroke:none" id="path180"/>
        </g>
        <g id="g182" transform="translate(206.7139,74.1875)">
          <path d="m 0,0 c -0.063,-0.072 -0.143,-0.111 -0.238,-0.115 -0.315,0.083 -0.544,-0.005 -0.658,-0.326 -0.164,-0.081 -0.327,-0.163 -0.49,-0.245 -0.72,-0.012 -1.277,-0.266 -1.493,-1.019 0,0 -0.043,-0.029 -0.042,-0.029 -0.867,-0.351 -1.672,-0.103 -2.466,0.254 -0.08,0.059 -0.126,0.139 -0.136,0.239 -0.024,0.71 -0.343,1.284 -0.826,1.782 -2.221,7.512 -1.358,14.583 3.024,21.151 0.053,0.079 0.112,0.157 0.182,0.217 0.669,0.572 1.391,1.625 2.217,1.164 C -0.203,22.672 -1,21.643 -1.115,20.891 -1.193,20.378 -1.41,19.864 -1.384,19.36 -1.11,14.112 -0.943,8.844 2.023,4.186 3.199,2.339 2.744,1.394 0.308,0.187 Z" style="fill:#3f3632;fill-opacity:1;fill-rule:nonzero;stroke:none" id="path184"/>
        </g>
        <g id="g186" transform="translate(201.3271,72.707)">
          <path d="M 0,0 C 0.794,-0.356 1.599,-0.604 2.466,-0.254 1.549,-1.087 0.702,-1.25 0,0" style="fill:#53508b;fill-opacity:1;fill-rule:nonzero;stroke:none" id="path188"/>
        </g>
        <g id="g190" transform="translate(200.3652,74.7285)">
          <path d="M 0,0 C 0.483,-0.498 0.802,-1.072 0.825,-1.782 0.326,-1.292 0.001,-0.721 0,0" style="fill:#53508b;fill-opacity:1;fill-rule:nonzero;stroke:none" id="path192"/>
        </g>
        <g id="g194" transform="translate(203.835,72.4824)">
          <path d="M 0,0 C 0.216,0.753 0.772,1.007 1.493,1.02 1.044,0.608 0.59,0.205 0,0" style="fill:#53508b;fill-opacity:1;fill-rule:nonzero;stroke:none" id="path196"/>
        </g>
        <g id="g198" transform="translate(205.8174,73.7461)">
          <path d="M 0,0 C 0.114,0.321 0.344,0.409 0.658,0.326 0.523,0.045 0.279,-0.014 0,0" style="fill:#53508b;fill-opacity:1;fill-rule:nonzero;stroke:none" id="path200"/>
        </g>
        <g id="g202" transform="translate(297.9053,172.168)">
          <path d="M 0,0 C 0.016,0.081 0.032,0.161 0.049,0.242 0.082,0.218 0.116,0.193 0.149,0.169 0.091,0.121 0.031,0.074 -0.028,0.025 Z" style="fill:#3f3632;fill-opacity:1;fill-rule:nonzero;stroke:none" id="path204"/>
        </g>
        <g id="g206" transform="translate(206.7139,74.1875)">
          <path d="M 0,0 0.308,0.187 C 0.269,0.021 0.162,-0.036 0,0" style="fill:#53508b;fill-opacity:1;fill-rule:nonzero;stroke:none" id="path208"/>
        </g>
      </g>
    </g>
  </g>
</svg>
